<svg width="41" height="36" viewBox="0 0 41 36" fill="none" xmlns="http://www.w3.org/2000/svg">
<path d="M9.68352 14.718H3.47422C3.00384 14.7158 2.54695 14.8751 2.17993 15.1694C1.81291 15.4636 1.55802 15.8749 1.45786 16.3345C0.189659 21.9862 0.148079 27.8442 1.33592 33.5134L1.46069 34.1113C1.55885 34.5755 1.81317 34.992 2.18125 35.2914C2.54933 35.5908 3.00891 35.755 3.48337 35.7566H9.68394C10.2317 35.7559 10.7568 35.538 11.144 35.1507C11.5313 34.7634 11.7492 34.2383 11.7498 33.6906V16.7839C11.7492 16.2361 11.5313 15.711 11.1439 15.3236C10.7565 14.9363 10.2313 14.7185 9.68352 14.718ZM9.08773 33.0949H3.96746L3.94176 32.9712C2.86413 27.8294 2.8686 22.5196 3.9549 17.3797H9.08773V33.0949Z" fill="white"/>
<path d="M40.2775 20.9241L38.4401 16.0245C38.2951 15.6415 38.0373 15.3115 37.7007 15.0783C37.3641 14.845 36.9647 14.7194 36.5552 14.7181H26.7647V12.2615L27.5609 10.4981C27.9595 9.61563 28.1792 8.66292 28.2073 7.69502C28.2355 6.72713 28.0716 5.76324 27.7252 4.85905C27.3787 3.95486 26.8564 3.12829 26.1887 2.42709C25.5209 1.7259 24.7208 1.16398 23.8346 0.773792C23.35 0.562781 22.802 0.549966 22.3081 0.738092C21.8142 0.926218 21.4137 1.30032 21.1923 1.78023L14.5122 16.4037V18.4883H16.4861L23.3295 3.50672C24.2956 4.10223 25.0117 5.02916 25.344 6.11425C25.6764 7.19934 25.6022 8.36832 25.1354 9.4027L24.2212 11.4273L24.103 11.9749V16.0489L25.4339 17.3797H36.1054L37.744 21.7488V22.5201L32.089 32.4588H21.6968L14.5122 28.2443V31.3301L20.5015 34.8436C20.8105 35.0248 21.1622 35.1204 21.5204 35.1205H32.4665C32.8219 35.1201 33.1709 35.0258 33.4782 34.8471C33.7854 34.6684 34.04 34.4116 34.2161 34.1029L40.1424 23.6869C40.3148 23.3834 40.4055 23.0403 40.4057 22.6913V21.631C40.4058 21.3896 40.3624 21.1501 40.2775 20.9241Z" fill="white"/>
</svg>
