<svg width="18" height="18" viewBox="0 0 18 18" fill="none" xmlns="http://www.w3.org/2000/svg">
<path d="M9 18C4.03535 18 0 13.9647 0 9C0 4.03535 4.03535 0 9 0C13.9647 0 18 4.03535 18 9C18 13.9647 13.9647 18 9 18ZM9 1.25581C4.73023 1.25581 1.25581 4.73023 1.25581 9C1.25581 13.2698 4.73023 16.7442 9 16.7442C13.2698 16.7442 16.7442 13.2698 16.7442 9C16.7442 4.73023 13.2698 1.25581 9 1.25581Z" fill="#C51162"/>
<path d="M7.81083 11.9972C7.64339 11.9972 7.48432 11.9302 7.36711 11.813L4.99777 9.44373C4.75498 9.20094 4.75498 8.79908 4.99777 8.55629C5.24056 8.3135 5.64242 8.3135 5.88521 8.55629L7.81083 10.4819L12.1141 6.17861C12.3569 5.93582 12.7587 5.93582 13.0015 6.17861C13.2443 6.4214 13.2443 6.82326 13.0015 7.06606L8.25455 11.813C8.13734 11.9302 7.97827 11.9972 7.81083 11.9972Z" fill="#C51162"/>
</svg>
