<svg width="18" height="18" viewBox="0 0 18 18" fill="none" xmlns="http://www.w3.org/2000/svg">
<path d="M9 18C4.03535 18 0 13.9647 0 9C0 4.03535 4.03535 0 9 0C13.9647 0 18 4.03535 18 9C18 13.9647 13.9647 18 9 18ZM9 1.25581C4.73023 1.25581 1.25581 4.73023 1.25581 9C1.25581 13.2698 4.73023 16.7442 9 16.7442C13.2698 16.7442 16.7442 13.2698 16.7442 9C16.7442 4.73023 13.2698 1.25581 9 1.25581Z" fill="#C51162"/>
<path d="M8.30546 11.9973C8.13802 11.9973 7.97895 11.9303 7.86174 11.8131L5.4924 9.44379C5.24961 9.201 5.24961 8.79914 5.4924 8.55635C5.73519 8.31356 6.13705 8.31356 6.37984 8.55635L8.30546 10.4819L12.6087 6.17868C12.8515 5.93588 13.2534 5.93588 13.4962 6.17868C13.7389 6.42147 13.7389 6.82333 13.4962 7.06612L8.74918 11.8131C8.63197 11.9303 8.4729 11.9973 8.30546 11.9973Z" fill="#C51162"/>
</svg>
