<svg width="39" height="43" viewBox="0 0 39 43" fill="none" xmlns="http://www.w3.org/2000/svg">
<path d="M37 2V13.7H25.3333" stroke="#B1B9D0" stroke-width="3" stroke-linecap="round" stroke-linejoin="round"/>
<path d="M2 21.5C2.00308 18.1134 2.98311 14.8001 4.82188 11.9597C6.66066 9.11921 9.27964 6.87294 12.3629 5.4918C15.4462 4.11067 18.8621 3.65365 22.1986 4.17588C25.5351 4.6981 28.6497 6.17727 31.1667 8.43496L37 13.7" stroke="#B1B9D0" stroke-width="3" stroke-linecap="round" stroke-linejoin="round"/>
<path d="M2 41V29.3H13.6667" stroke="#B1B9D0" stroke-width="3" stroke-linecap="round" stroke-linejoin="round"/>
<path d="M37 21.5C36.9969 24.8865 36.0169 28.1999 34.1781 31.0403C32.3393 33.8808 29.7204 36.127 26.6371 37.5082C23.5538 38.8893 20.1379 39.3463 16.8014 38.8241C13.4649 38.3019 10.3503 36.8227 7.83333 34.565L2 29.3" stroke="#B1B9D0" stroke-width="3" stroke-linecap="round" stroke-linejoin="round"/>
</svg>
