<svg width="19" height="23" viewBox="0 0 19 23" fill="none" xmlns="http://www.w3.org/2000/svg">
<path d="M17.3636 9.68182C17.3636 16.0455 9.18182 21.5 9.18182 21.5C9.18182 21.5 1 16.0455 1 9.68182C1 7.51187 1.86201 5.43079 3.3964 3.8964C4.93079 2.36201 7.01186 1.5 9.18182 1.5C11.3518 1.5 13.4328 2.36201 14.9672 3.8964C16.5016 5.43079 17.3636 7.51187 17.3636 9.68182Z" stroke="#0D3076" stroke-width="2" stroke-linecap="round" stroke-linejoin="round"/>
<path d="M9.1818 12.4091C10.688 12.4091 11.9091 11.188 11.9091 9.6818C11.9091 8.17557 10.688 6.95453 9.1818 6.95453C7.67557 6.95453 6.45453 8.17557 6.45453 9.6818C6.45453 11.188 7.67557 12.4091 9.1818 12.4091Z" stroke="#0D3076" stroke-width="2" stroke-linecap="round" stroke-linejoin="round"/>
</svg>
