<svg width="22" height="23" viewBox="0 0 22 23" fill="none" xmlns="http://www.w3.org/2000/svg">
<path d="M20.9994 16.4738V19.4846C21.0005 19.7642 20.9432 20.0408 20.831 20.2969C20.7188 20.553 20.5542 20.7829 20.3478 20.9719C20.1415 21.1608 19.8978 21.3047 19.6325 21.3942C19.3672 21.4838 19.0861 21.517 18.8072 21.4919C15.7128 21.1563 12.7404 20.101 10.1289 18.4108C7.69921 16.8699 5.63926 14.8141 4.09534 12.3892C2.39586 9.77099 1.33824 6.79008 1.00816 3.68795C0.983033 3.41042 1.01608 3.13071 1.1052 2.86663C1.19432 2.60254 1.33757 2.35987 1.52581 2.15407C1.71405 1.94826 1.94317 1.78383 2.19858 1.67123C2.45398 1.55864 2.73008 1.50036 3.0093 1.5001H6.02608C6.5141 1.4953 6.98722 1.66778 7.35725 1.98537C7.72727 2.30297 7.96896 2.74401 8.03727 3.22629C8.1646 4.18982 8.40074 5.13587 8.74118 6.04642C8.87648 6.40563 8.90576 6.79602 8.82556 7.17133C8.74536 7.54665 8.55903 7.89115 8.28867 8.16402L7.01156 9.43859C8.44308 11.9512 10.5276 14.0315 13.0451 15.4602L14.3222 14.1856C14.5956 13.9158 14.9408 13.7298 15.3169 13.6498C15.6929 13.5698 16.0841 13.599 16.444 13.734C17.3564 14.0738 18.3043 14.3095 19.2698 14.4365C19.7582 14.5053 20.2044 14.7509 20.5233 15.1265C20.8422 15.5021 21.0116 15.9817 20.9994 16.4738Z" stroke="#0D3076" stroke-width="2" stroke-linecap="round" stroke-linejoin="round"/>
</svg>
