<svg width="20" height="21" viewBox="0 0 20 21" fill="none" xmlns="http://www.w3.org/2000/svg">
<path d="M10.152 19.3481C15.0386 19.3481 19 15.3867 19 10.5C19 5.61338 15.0386 1.65198 10.152 1.65198C5.26536 1.65198 1.30396 5.61338 1.30396 10.5C1.30396 15.3867 5.26536 19.3481 10.152 19.3481Z" stroke="#0D3076" stroke-width="2" stroke-linecap="round" stroke-linejoin="round"/>
<path d="M7.57721 7.84559C7.78523 7.25425 8.19582 6.75561 8.73626 6.43798C9.2767 6.12036 9.91212 6.00426 10.53 6.11023C11.1478 6.21621 11.7082 6.53743 12.1119 7.017C12.5156 7.49656 12.7366 8.10353 12.7356 8.73039C12.7356 10.5 10.0812 11.3848 10.0812 11.3848" stroke="#0D3076" stroke-width="2" stroke-linecap="round" stroke-linejoin="round"/>
<path d="M10.152 14.924H10.1607" stroke="#0D3076" stroke-width="2" stroke-linecap="round" stroke-linejoin="round"/>
</svg>
