<svg width="20" height="20" viewBox="0 0 20 20" fill="none" xmlns="http://www.w3.org/2000/svg">
<path d="M10.152 19C15.0386 19 19 15.0386 19 10.1519C19 5.2653 15.0386 1.30389 10.152 1.30389C5.26536 1.30389 1.30396 5.2653 1.30396 10.1519C1.30396 15.0386 5.26536 19 10.152 19Z" stroke="#0D3076" stroke-width="2" stroke-linecap="round" stroke-linejoin="round"/>
<path d="M7.57727 7.49751C7.78529 6.90616 8.19588 6.40752 8.73632 6.0899C9.27676 5.77228 9.91218 5.65617 10.53 5.76215C11.1479 5.86813 11.7083 6.18935 12.112 6.66891C12.5157 7.14848 12.7366 7.75545 12.7357 8.38231C12.7357 10.1519 10.0813 11.0367 10.0813 11.0367" stroke="#0D3076" stroke-width="2" stroke-linecap="round" stroke-linejoin="round"/>
<path d="M10.152 14.5759H10.1607" stroke="#0D3076" stroke-width="2" stroke-linecap="round" stroke-linejoin="round"/>
</svg>
