<svg width="20" height="20" viewBox="0 0 20 20" fill="none" xmlns="http://www.w3.org/2000/svg">
<path d="M10.152 19C15.0386 19 19 15.0386 19 10.152C19 5.26533 15.0386 1.30392 10.152 1.30392C5.26536 1.30392 1.30396 5.26533 1.30396 10.152C1.30396 15.0386 5.26536 19 10.152 19Z" stroke="#0D3076" stroke-width="2" stroke-linecap="round" stroke-linejoin="round"/>
<path d="M7.57727 7.49757C7.78529 6.90622 8.19588 6.40758 8.73632 6.08996C9.27676 5.77234 9.91218 5.65624 10.53 5.76221C11.1479 5.86819 11.7083 6.18941 12.112 6.66897C12.5157 7.14854 12.7366 7.75551 12.7357 8.38237C12.7357 10.152 10.0813 11.0368 10.0813 11.0368" stroke="#0D3076" stroke-width="2" stroke-linecap="round" stroke-linejoin="round"/>
<path d="M10.152 14.576H10.1607" stroke="#0D3076" stroke-width="2" stroke-linecap="round" stroke-linejoin="round"/>
</svg>
