<svg width="150" height="36" viewBox="0 0 150 36" fill="none" xmlns="http://www.w3.org/2000/svg">
<mask id="mask0_6199_51422" style="mask-type:alpha" maskUnits="userSpaceOnUse" x="0" y="0" width="150" height="36">
<path d="M0 9.8619H2.87735L7.35266 26.0296C8.16877 29.1047 8.73696 31.4018 9.05724 32.921H9.27047L11.1343 26.0296L15.6636 9.8619H18.7542L23.2834 26.0296L24.0297 28.6267L25.1486 32.921H25.3618L27.173 26.0296L31.5404 9.8619H34.2572L27.0111 35.3596H23.4954L19.1267 19.9332C18.8775 19.0811 18.5401 17.809 18.1145 16.1168C17.9364 15.3397 17.6366 14.1737 17.2153 12.6187H17.0021C16.2519 15.7986 15.5942 18.2546 15.029 19.9868L10.7618 35.3596H7.45928L0 9.8619Z" fill="url(#paint0_linear_6199_51422)"/>
<path d="M65.6704 34.6439C63.5597 33.7689 61.648 32.4796 60.0493 30.8531L63.2452 27.1467C64.5064 28.4071 65.9859 29.4306 67.6126 30.168C69.1636 30.8918 70.854 31.2716 72.5671 31.2813C74.2892 31.3798 75.9952 30.904 77.4149 29.929C77.9809 29.5101 78.4366 28.961 78.7428 28.3287C79.0491 27.6963 79.1968 26.9996 79.1734 26.298C79.2065 25.4281 78.974 24.5686 78.5067 23.8326C78.0508 23.1684 77.4496 22.6157 76.7482 22.2158C75.7254 21.6524 74.6664 21.1567 73.578 20.732L68.7302 18.6116C64.0074 16.6664 61.646 13.6438 61.646 9.54369C61.6263 7.80773 62.1375 6.10683 63.1116 4.66653C64.133 3.17982 65.542 1.99791 67.1874 1.24766C69.021 0.39693 71.0246 -0.0291122 73.0475 0.00154464C75.0426 -0.0036878 77.0181 0.393249 78.8548 1.16842C80.6339 1.90079 82.2463 2.98226 83.5961 4.34829L80.7701 7.7991C78.6733 5.84706 75.9163 4.74959 73.0449 4.72404C71.5101 4.64254 69.9916 5.07152 68.7289 5.94334C68.2149 6.32157 67.8009 6.81833 67.5226 7.39093C67.2442 7.96353 67.1098 8.59483 67.1309 9.23055C67.1049 10.0739 67.3777 10.8996 67.9016 11.563C68.4126 12.1947 69.0471 12.7165 69.7668 13.0967C70.4947 13.4861 71.4983 13.9454 72.7777 14.4745L77.6255 16.5424C79.6445 17.2865 81.4471 18.5159 82.8729 20.1211C84.1555 21.7587 84.8074 23.7985 84.711 25.8724C84.7276 27.6851 84.2091 29.4626 83.2197 30.9847C82.1664 32.5728 80.691 33.8391 78.9576 34.6426C76.9241 35.584 74.7001 36.0466 72.4579 35.9948C70.1252 36.0041 67.8147 35.5442 65.6653 34.6426" fill="url(#paint1_linear_6199_51422)"/>
<path d="M87.2737 25.765V9.43754H92.6546V25.0723C92.5232 26.7479 92.8852 28.4253 93.6964 29.8996C94.0886 30.411 94.6045 30.8153 95.1962 31.0748C95.7878 31.3342 96.4358 31.4404 97.0798 31.3834C98.2114 31.405 99.3238 31.0914 100.276 30.4824C101.454 29.6373 102.496 28.6185 103.366 27.461V9.4401H108.747V35.3621H104.322L103.896 31.4397H103.736C102.628 32.778 101.305 33.9246 99.821 34.833C98.4364 35.6237 96.8623 36.0265 95.2661 35.9986C89.9387 35.9986 87.275 32.5904 87.275 25.774" fill="url(#paint2_linear_6199_51422)"/>
<path d="M113.752 9.43756H118.173L118.6 14.1026H118.761C119.569 12.5755 120.705 11.2448 122.09 10.2057C123.26 9.31175 124.69 8.81856 126.165 8.7998C127.152 8.76405 128.135 8.94514 129.043 9.3302L128.083 13.999C127.238 13.7336 126.359 13.5898 125.473 13.5721C124.195 13.6102 122.969 14.0881 122.005 14.9244C120.693 16.0773 119.702 17.547 119.128 19.1919V35.3596H113.752V9.43756Z" fill="url(#paint3_linear_6199_51422)"/>
<path d="M149.767 23.8032C149.914 22.8916 149.986 21.9696 149.981 21.0464C150.153 17.836 149.17 14.6695 147.21 12.1139C146.247 11.0006 145.039 10.1228 143.68 9.54835C142.322 8.9739 140.848 8.71823 139.374 8.80111C137.319 8.79981 135.305 9.37907 133.567 10.4716C131.7 11.6436 130.183 13.2908 129.171 15.2426C128.016 17.4594 127.439 19.9291 127.492 22.4254C127.433 24.931 128.01 27.4109 129.171 29.6351C130.213 31.605 131.794 33.2411 133.731 34.3537C135.696 35.4613 137.921 36.0286 140.178 35.9974C143.321 35.9812 146.385 35.0202 148.968 33.2405L147.103 29.8485C145.26 31.0892 143.094 31.7707 140.869 31.8104C138.803 31.8595 136.795 31.1289 135.248 29.7654C133.606 28.2013 132.641 26.0623 132.557 23.8019C132.44 22.6955 132.467 21.5786 132.637 20.4789C132.827 18.3669 133.695 16.3718 135.113 14.7889C136.272 13.637 137.843 12.989 139.481 12.9868C140.296 12.9374 141.112 13.0796 141.862 13.402C142.611 13.7244 143.274 14.2179 143.797 14.8426C144.88 16.3719 145.406 18.2232 145.288 20.0904H137.534V23.7968L149.767 23.8032Z" fill="url(#paint4_linear_6199_51422)"/>
<path d="M58.9408 24.4666C55.7808 30.4071 51.0306 34.0713 46.0852 33.716C44.4248 33.673 42.7991 33.2347 41.344 32.438C39.8814 31.5456 38.6929 30.2711 37.9078 28.7532C36.9663 27.0028 36.498 25.039 36.5488 23.0543C36.5578 22.5098 36.6156 21.4235 36.6554 20.8816C36.7552 19.0708 37.2833 17.3091 38.1969 15.7398C38.9451 14.4317 40.0181 13.3365 41.3131 12.5587C42.4649 11.8727 43.7807 11.5068 45.1231 11.4992C46.149 11.4489 47.1726 11.6384 48.1117 12.0526C49.0508 12.4667 49.8793 13.094 50.5309 13.8841C51.9638 15.9269 52.6501 18.3965 52.4757 20.8816H41.6304V23.0543H54.8739C54.9827 22.3884 55.036 21.7147 55.0332 21.04C55.2206 17.9232 54.2857 14.842 52.3961 12.3491C51.5048 11.3092 50.3857 10.4866 49.1248 9.9444C47.864 9.40223 46.495 9.15497 45.1231 9.22164C43.1633 9.22361 41.2467 9.79486 39.6086 10.8653C37.8246 12.029 36.389 13.6498 35.4531 15.5571C34.3668 17.7566 33.8276 20.1836 33.8808 22.6338C33.8214 25.0932 34.3609 27.5303 35.4531 29.7374C36.4162 31.662 37.9136 33.2716 39.7678 34.3755C41.5976 35.4536 43.689 36.0127 45.8154 35.9923C47.3078 36.0195 48.794 35.7952 50.2111 35.329C51.4712 34.888 56.7378 33.2431 60.8342 25.6986L58.9408 24.4666Z" fill="url(#paint5_linear_6199_51422)"/>
</mask>
<g mask="url(#mask0_6199_51422)">
<rect x="-0.841217" y="-0.827507" width="151.488" height="37.5216" fill="url(#paint6_linear_6199_51422)"/>
</g>
<defs>
<linearGradient id="paint0_linear_6199_51422" x1="0.039608" y1="26.8767" x2="35.1292" y2="27.0171" gradientUnits="userSpaceOnUse">
<stop stop-color="#922C7A"/>
<stop offset="0.28125" stop-color="#B22070"/>
<stop offset="0.567708" stop-color="#D21A69"/>
<stop offset="0.796875" stop-color="#EF4B48"/>
<stop offset="1" stop-color="#F78F1E"/>
</linearGradient>
<linearGradient id="paint1_linear_6199_51422" x1="60.0778" y1="24.0222" x2="85.3487" y2="24.0738" gradientUnits="userSpaceOnUse">
<stop stop-color="#922C7A"/>
<stop offset="0.28125" stop-color="#B22070"/>
<stop offset="0.567708" stop-color="#D21A69"/>
<stop offset="0.796875" stop-color="#EF4B48"/>
<stop offset="1" stop-color="#F78F1E"/>
</linearGradient>
<linearGradient id="paint2_linear_6199_51422" x1="87.2985" y1="27.1628" x2="109.294" y2="27.2158" gradientUnits="userSpaceOnUse">
<stop stop-color="#922C7A"/>
<stop offset="0.28125" stop-color="#B22070"/>
<stop offset="0.567708" stop-color="#D21A69"/>
<stop offset="0.796875" stop-color="#EF4B48"/>
<stop offset="1" stop-color="#F78F1E"/>
</linearGradient>
<linearGradient id="paint3_linear_6199_51422" x1="113.769" y1="26.5219" x2="129.432" y2="26.5487" gradientUnits="userSpaceOnUse">
<stop stop-color="#922C7A"/>
<stop offset="0.28125" stop-color="#B22070"/>
<stop offset="0.567708" stop-color="#D21A69"/>
<stop offset="0.796875" stop-color="#EF4B48"/>
<stop offset="1" stop-color="#F78F1E"/>
</linearGradient>
<linearGradient id="paint4_linear_6199_51422" x1="127.514" y1="26.9451" x2="150.573" y2="27.0019" gradientUnits="userSpaceOnUse">
<stop stop-color="#922C7A"/>
<stop offset="0.28125" stop-color="#B22070"/>
<stop offset="0.567708" stop-color="#D21A69"/>
<stop offset="0.796875" stop-color="#EF4B48"/>
<stop offset="1" stop-color="#F78F1E"/>
</linearGradient>
<linearGradient id="paint5_linear_6199_51422" x1="33.9076" y1="27.0838" x2="61.5206" y2="27.1666" gradientUnits="userSpaceOnUse">
<stop stop-color="#922C7A"/>
<stop offset="0.28125" stop-color="#B22070"/>
<stop offset="0.567708" stop-color="#D21A69"/>
<stop offset="0.796875" stop-color="#EF4B48"/>
<stop offset="1" stop-color="#F78F1E"/>
</linearGradient>
<linearGradient id="paint6_linear_6199_51422" x1="-0.666067" y1="24.2109" x2="154.484" y2="26.0763" gradientUnits="userSpaceOnUse">
<stop stop-color="#922C7A"/>
<stop offset="0.28125" stop-color="#B22070"/>
<stop offset="0.567708" stop-color="#D21A69"/>
<stop offset="0.796875" stop-color="#EF4B48"/>
<stop offset="1" stop-color="#F78F1E"/>
</linearGradient>
</defs>
</svg>
