<svg width="80" height="80" viewBox="0 0 80 80" fill="none" xmlns="http://www.w3.org/2000/svg">
<g filter="url(#filter0_d_5989_223024)">
<path d="M36.5091 2.24002C38.0361 -0.489443 41.9639 -0.489443 43.4909 2.24002L45.2404 5.36735C46.3397 7.33234 48.8435 8.00324 50.778 6.85115L53.8568 5.01756C56.5439 3.41725 59.9455 5.38118 59.9032 8.50843L59.8546 12.0916C59.8242 14.3429 61.6571 16.1758 63.9084 16.1454L67.4916 16.0968C70.6188 16.0545 72.5827 19.4561 70.9824 22.1432L69.1488 25.222C67.9968 27.1565 68.6677 29.6603 70.6326 30.7596L73.76 32.5091C76.4894 34.0361 76.4894 37.9639 73.76 39.4909L70.6326 41.2404C68.6677 42.3397 67.9968 44.8435 69.1488 46.778L70.9824 49.8568C72.5827 52.5439 70.6188 55.9455 67.4916 55.9032L63.9084 55.8546C61.6571 55.8242 59.8242 57.6571 59.8546 59.9084L59.9032 63.4916C59.9455 66.6188 56.5439 68.5827 53.8568 66.9824L50.778 65.1488C48.8435 63.9968 46.3397 64.6677 45.2404 66.6326L43.4909 69.76C41.9639 72.4894 38.0361 72.4894 36.5091 69.76L34.7596 66.6326C33.6603 64.6677 31.1565 63.9968 29.222 65.1488L26.1432 66.9824C23.4561 68.5827 20.0545 66.6188 20.0968 63.4916L20.1454 59.9084C20.1758 57.6571 18.3429 55.8242 16.0916 55.8546L12.5084 55.9032C9.38118 55.9455 7.41725 52.5439 9.01756 49.8568L10.8511 46.778C12.0032 44.8435 11.3323 42.3397 9.36735 41.2404L6.24002 39.4909C3.51056 37.9639 3.51056 34.0361 6.24002 32.5091L9.36735 30.7596C11.3323 29.6603 12.0032 27.1565 10.8511 25.222L9.01756 22.1432C7.41725 19.4561 9.38117 16.0545 12.5084 16.0968L16.0916 16.1454C18.3429 16.1758 20.1758 14.3429 20.1454 12.0916L20.0968 8.50843C20.0545 5.38118 23.4561 3.41725 26.1432 5.01756L29.222 6.85115C31.1565 8.00323 33.6603 7.33234 34.7596 5.36735L36.5091 2.24002Z" fill="#9B51E0"/>
</g>
<defs>
<filter id="filter0_d_5989_223024" x="0.192871" y="0.192871" width="79.6143" height="79.6143" filterUnits="userSpaceOnUse" color-interpolation-filters="sRGB">
<feFlood flood-opacity="0" result="BackgroundImageFix"/>
<feColorMatrix in="SourceAlpha" type="matrix" values="0 0 0 0 0 0 0 0 0 0 0 0 0 0 0 0 0 0 127 0" result="hardAlpha"/>
<feOffset dy="4"/>
<feGaussianBlur stdDeviation="2"/>
<feComposite in2="hardAlpha" operator="out"/>
<feColorMatrix type="matrix" values="0 0 0 0 0 0 0 0 0 0 0 0 0 0 0 0 0 0 0.25 0"/>
<feBlend mode="normal" in2="BackgroundImageFix" result="effect1_dropShadow_5989_223024"/>
<feBlend mode="normal" in="SourceGraphic" in2="effect1_dropShadow_5989_223024" result="shape"/>
</filter>
</defs>
</svg>
